# xmcd
#
# Track frame offsets:
#	150
#	24575
#	38726
#	50983
#	67172
#	75185
#	89327
#	103018
#	111374
#	124432
#	134952
#	150477
#
# Disc length: 2197 seconds
#
# Revision: 1
# Processed by: cddbd v1.5.1PL2 Copyright (c) Steve Scherf et al.
# Submitted via: audiograbber 1.80
#
DISCID=ab08930c
DTITLE=Юрий Гальцев - Середина лета
DYEAR=1900
DGENRE=
TTITLE0=Середина лета
TTITLE1=Цирк
TTITLE2=Кораблик
TTITLE3=Привяжу свою судьбу
TTITLE4=По-над Доном...
TTITLE5=Мне снился сон
TTITLE6=Как бы мне цветок
TTITLE7=Гном
TTITLE8=Ты
TTITLE9=Точка, точка, запятая...
TTITLE10=Зима
TTITLE11=Не покидай меня
EXTD=
EXTT0=
EXTT1=
EXTT2=
EXTT3=
EXTT4=
EXTT5=
EXTT6=
EXTT7=
EXTT8=
EXTT9=
EXTT10=
EXTT11=
PLAYORDER=
